<?xml version="1.0" standalone="no"?>
<!DOCTYPE svg PUBLIC "-//W3C//DTD SVG 20010904//EN"
 "http://www.w3.org/TR/2001/REC-SVG-20010904/DTD/svg10.dtd">
<svg version="1.0" xmlns="http://www.w3.org/2000/svg"
 width="128.000000pt" height="128.000000pt" viewBox="0 0 128.000000 128.000000"
 preserveAspectRatio="xMidYMid meet">

<g transform="translate(0.000000,128.000000) scale(0.100000,-0.100000)"
fill="#000000" stroke="none">
<path d="M17 1262 c-15 -16 -17 -49 -17 -254 0 -215 2 -236 18 -251 17 -15 67
-17 509 -17 462 0 491 1 506 18 15 16 17 49 17 254 0 215 -2 236 -18 251 -17
15 -67 17 -509 17 -462 0 -491 -1 -506 -18z m1007 -8 c24 -23 24 -465 0 -488
-14 -14 -73 -16 -499 -16 -426 0 -485 2 -499 16 -24 23 -24 465 0 488 14 14
73 16 499 16 426 0 485 -2 499 -16z"/>
<path d="M880 1005 c0 -43 4 -75 10 -75 6 0 10 9 10 19 0 31 16 33 34 6 9 -14
23 -25 32 -25 13 0 12 5 -5 26 -25 32 -26 42 -4 66 15 16 15 18 0 18 -9 0 -21
-9 -27 -20 -17 -32 -30 -23 -30 20 0 22 -4 40 -10 40 -6 0 -10 -32 -10 -75z"/>
<path d="M114 1063 c-36 -25 -43 -84 -14 -113 21 -21 74 -27 85 -10 4 6 -6 10
-22 10 -36 0 -53 16 -53 51 0 31 21 52 49 47 11 -2 21 2 23 7 4 12 -52 18 -68
8z"/>
<path d="M550 1000 l0 -70 45 0 c25 0 45 5 45 10 0 6 -13 10 -30 10 l-30 0 0
60 c0 47 -3 60 -15 60 -12 0 -15 -14 -15 -70z"/>
<path d="M225 1030 c-4 -6 5 -10 19 -10 14 0 26 -4 26 -10 0 -5 -11 -10 -24
-10 -13 0 -29 -7 -37 -16 -21 -26 1 -49 50 -50 40 -1 41 0 41 33 0 19 -5 43
-10 54 -11 20 -54 26 -65 9z m43 -57 c-4 -22 -38 -30 -38 -10 0 14 13 24 33
26 5 1 7 -7 5 -16z"/>
<path d="M330 959 c0 -46 4 -79 10 -79 6 0 10 13 10 30 0 27 2 29 30 24 25 -5
31 -2 41 20 9 19 10 35 3 54 -8 23 -15 27 -52 28 l-42 2 0 -79z m73 42 c6 -23
-9 -51 -28 -51 -15 0 -23 25 -17 53 6 23 38 22 45 -2z"/>
<path d="M463 1033 c-22 -8 -14 -39 12 -51 14 -6 25 -16 25 -22 0 -5 -11 -10
-25 -10 -14 0 -25 -4 -25 -10 0 -14 54 -12 68 2 20 20 14 37 -20 55 l-33 18
28 3 c15 2 27 8 27 13 0 9 -36 11 -57 2z"/>
<path d="M670 1025 c-16 -20 -16 -61 0 -80 19 -23 62 -14 79 16 13 24 13 29
-2 53 -20 29 -57 35 -77 11z m55 -40 c0 -23 -4 -30 -20 -30 -21 0 -31 25 -21
51 11 28 41 12 41 -21z"/>
<path d="M790 1025 c-29 -35 -7 -95 36 -95 33 0 39 18 7 22 -24 3 -28 8 -28
33 0 23 5 31 23 33 12 2 22 8 22 13 0 15 -46 10 -60 -6z"/>
<path d="M1127 1262 c-15 -16 -17 -49 -17 -254 0 -279 -4 -269 106 -266 l69 1
-73 6 c-49 4 -76 11 -82 21 -5 8 -10 116 -10 240 0 124 5 232 10 240 6 10 33
17 82 21 l73 6 -71 1 c-57 2 -74 -1 -87 -16z"/>
<path d="M17 672 c-15 -16 -17 -49 -17 -254 0 -215 2 -236 18 -251 17 -15 60
-17 409 -17 365 0 391 1 406 18 15 16 17 49 17 254 0 215 -2 236 -18 251 -17
15 -60 17 -409 17 -365 0 -391 -1 -406 -18z m807 -8 c24 -23 24 -465 0 -488
-13 -14 -64 -16 -399 -16 -335 0 -386 2 -399 16 -24 23 -24 465 0 488 13 14
64 16 399 16 335 0 386 -2 399 -16z"/>
<path d="M330 415 c0 -80 17 -104 22 -32 2 34 7 42 23 42 16 0 21 -8 23 -42 4
-60 22 -54 22 7 0 44 -3 50 -24 56 -14 3 -30 3 -35 -1 -7 -4 -11 4 -11 19 0
14 -4 26 -10 26 -6 0 -10 -32 -10 -75z"/>
<path d="M452 481 c4 -13 18 -16 19 -4 0 4 -5 9 -11 12 -7 2 -11 -2 -8 -8z"/>
<path d="M523 473 c-4 -10 -11 -22 -17 -26 -8 -6 -7 -10 2 -14 7 -3 12 -23 12
-49 0 -24 5 -44 10 -44 6 0 10 20 10 45 0 38 3 45 20 45 16 0 20 -7 20 -33 0
-18 5 -38 12 -45 15 -15 48 -16 48 -2 0 6 -7 10 -15 10 -10 0 -15 11 -15 35 0
24 5 35 15 35 8 0 15 5 15 10 0 6 -6 10 -14 10 -8 0 -17 6 -20 13 -5 10 -7 10
-12 0 -7 -15 -54 -17 -54 -3 0 6 7 10 15 10 8 0 15 5 15 10 0 17 -40 11 -47
-7z"/>
<path d="M220 465 c-17 -20 -5 -44 31 -62 35 -18 30 -38 -9 -38 -38 0 -37 -19
2 -23 57 -7 77 47 26 73 -37 19 -41 48 -5 43 13 -2 25 2 27 7 5 18 -58 17 -72
0z"/>
<path d="M450 395 c0 -30 5 -55 10 -55 6 0 10 25 10 55 0 30 -4 55 -10 55 -5
0 -10 -25 -10 -55z"/>
<path d="M927 672 c-15 -16 -17 -49 -17 -254 0 -215 2 -236 18 -251 16 -15 42
-17 188 -15 l169 2 -173 6 c-138 4 -175 8 -182 20 -5 8 -10 116 -10 240 0 124
5 232 10 240 7 12 44 16 182 20 l173 6 -171 2 c-154 2 -172 0 -187 -16z"/>
<path d="M1164 410 c-37 -97 -40 -110 -24 -110 12 0 23 14 33 43 8 23 26 72
40 110 23 60 24 67 9 67 -13 0 -28 -29 -58 -110z"/>
<path d="M17 82 c-10 -11 -16 -34 -16 -53 l1 -34 8 39 c4 21 13 42 21 47 18
11 870 11 888 0 8 -5 17 -26 21 -47 l8 -39 1 36 c2 71 17 69 -476 69 -413 0
-441 -1 -456 -18z"/>
<path d="M1027 82 c-10 -11 -16 -34 -16 -53 l1 -34 8 38 c4 20 10 41 14 45 4
4 62 10 129 13 l122 5 -121 2 c-106 2 -123 0 -137 -16z"/>
</g>
</svg>
